<svg xmlns="http://www.w3.org/2000/svg" width="20" height="22" viewBox="0 0 20 22">
    <path fill="#000" fill-rule="nonzero" d="M17.188 2.75h-2.063V.516A.517.517 0 0 0 14.609 0h-.343a.517.517 0 0 0-.516.516V2.75H5.5V.516A.517.517 0 0 0 4.984 0h-.343a.517.517 0 0 0-.516.516V2.75H2.062A2.063 2.063 0 0 0 0 4.813v15.125C0 21.075.924 22 2.063 22h15.124a2.063 2.063 0 0 0 2.063-2.063V4.813a2.063 2.063 0 0 0-2.063-2.062zM2.063 4.125h15.124a.69.69 0 0 1 .688.688v2.062h-16.5V4.812a.69.69 0 0 1 .688-.687zm15.124 16.5H2.063a.69.69 0 0 1-.687-.688V8.25h16.5v11.688a.69.69 0 0 1-.688.687zM6.36 13.75H4.641a.517.517 0 0 1-.516-.516v-1.718c0-.284.232-.516.516-.516h1.718c.284 0 .516.232.516.516v1.718a.517.517 0 0 1-.516.516zm4.125 0H8.766a.517.517 0 0 1-.516-.516v-1.718c0-.284.232-.516.516-.516h1.718c.284 0 .516.232.516.516v1.718a.517.517 0 0 1-.516.516zm4.125 0h-1.718a.517.517 0 0 1-.516-.516v-1.718c0-.284.232-.516.516-.516h1.718c.284 0 .516.232.516.516v1.718a.517.517 0 0 1-.516.516zm-4.125 4.125H8.766a.517.517 0 0 1-.516-.516v-1.718c0-.284.232-.516.516-.516h1.718c.284 0 .516.232.516.516v1.718a.517.517 0 0 1-.516.516zm-4.125 0H4.641a.517.517 0 0 1-.516-.516v-1.718c0-.284.232-.516.516-.516h1.718c.284 0 .516.232.516.516v1.718a.517.517 0 0 1-.516.516zm8.25 0h-1.718a.517.517 0 0 1-.516-.516v-1.718c0-.284.232-.516.516-.516h1.718c.284 0 .516.232.516.516v1.718a.517.517 0 0 1-.516.516z"/>
</svg>
