<svg xmlns="http://www.w3.org/2000/svg" width="22" height="22" viewBox="0 0 22 22">
    <path fill="#000" fill-rule="nonzero" d="M21.742 10.313h-1.486a9.282 9.282 0 0 0-8.569-8.569V.258A.258.258 0 0 0 11.43 0h-.86a.258.258 0 0 0-.258.258v1.486a9.282 9.282 0 0 0-8.568 8.569H.258A.258.258 0 0 0 0 10.57v.86c0 .142.115.258.258.258h1.486a9.282 9.282 0 0 0 8.569 8.568v1.486c0 .143.115.258.257.258h.86a.258.258 0 0 0 .258-.258v-1.486a9.282 9.282 0 0 0 8.568-8.569h1.486A.258.258 0 0 0 22 11.43v-.86a.258.258 0 0 0-.258-.258zm-10.055 8.563V16.07a.258.258 0 0 0-.257-.258h-.86a.258.258 0 0 0-.258.258v2.806a7.903 7.903 0 0 1-7.188-7.189H5.93a.258.258 0 0 0 .258-.257v-.86a.258.258 0 0 0-.258-.258H3.124a7.903 7.903 0 0 1 7.188-7.188V5.93c0 .142.116.258.258.258h.86a.258.258 0 0 0 .258-.258V3.124a7.903 7.903 0 0 1 7.188 7.188H16.07a.258.258 0 0 0-.258.258v.86c0 .142.116.258.258.258h2.806a7.903 7.903 0 0 1-7.189 7.188zM12.031 11a1.031 1.031 0 1 1-2.062 0 1.031 1.031 0 0 1 2.062 0z"/>
</svg>
