<svg xmlns="http://www.w3.org/2000/svg" width="17" height="23" viewBox="0 0 17 23">
    <path fill="#000" fill-rule="nonzero" d="M8.25 5.014a4.13 4.13 0 0 0-4.125 4.125 4.13 4.13 0 0 0 4.125 4.125 4.13 4.13 0 0 0 4.125-4.125A4.13 4.13 0 0 0 8.25 5.014zm0 6.875a2.753 2.753 0 0 1-2.75-2.75 2.753 2.753 0 0 1 2.75-2.75A2.753 2.753 0 0 1 11 9.139a2.753 2.753 0 0 1-2.75 2.75zm0-11A8.25 8.25 0 0 0 0 9.139c0 3.326 1.159 4.255 7.402 13.306.41.592 1.286.592 1.696 0 6.243-9.05 7.402-9.98 7.402-13.306A8.25 8.25 0 0 0 8.25.889zm0 20.364C2.265 12.597 1.375 11.91 1.375 9.14a6.83 6.83 0 0 1 2.014-4.861A6.83 6.83 0 0 1 8.25 2.264a6.83 6.83 0 0 1 4.861 2.014 6.83 6.83 0 0 1 2.014 4.86c0 2.772-.89 3.459-6.875 12.115z"/>
</svg>
