<svg xmlns="http://www.w3.org/2000/svg" width="22" height="22" viewBox="0 0 22 22">
    <path fill="#000" fill-rule="nonzero" d="M11 0C4.923 0 0 4.923 0 11s4.923 11 11 11 11-4.923 11-11S17.077 0 11 0zm0 20.58c-5.283 0-9.58-4.297-9.58-9.58S5.716 1.42 11 1.42s9.58 4.297 9.58 9.58-4.297 9.58-9.58 9.58zm1.787-9.815l-3.193-.896a1.245 1.245 0 0 1-.914-1.184c0-.679.568-1.233 1.264-1.233h1.996c.497 0 .972.16 1.358.448a.352.352 0 0 0 .46-.036l.502-.51c.15-.15.133-.4-.035-.532a3.66 3.66 0 0 0-2.29-.794h-.225V4.254a.356.356 0 0 0-.355-.355h-.71a.356.356 0 0 0-.355.355v1.774h-.346c-1.477 0-2.683 1.189-2.683 2.652a2.67 2.67 0 0 0 1.947 2.55l3.194.897c.536.15.913.638.913 1.184 0 .679-.567 1.233-1.264 1.233h-1.996c-.497 0-.971-.16-1.357-.448a.352.352 0 0 0-.461.035l-.502.51c-.15.151-.133.4.036.533a3.66 3.66 0 0 0 2.289.794h.23v1.774c0 .195.16.355.355.355h.71c.195 0 .355-.16.355-.355v-1.774h.346c1.477 0 2.683-1.189 2.683-2.653a2.674 2.674 0 0 0-1.952-2.55z"/>
</svg>
