<svg xmlns="http://www.w3.org/2000/svg" width="22" height="18" viewBox="0 0 22 18">
    <path fill="#000" fill-rule="nonzero" d="M13.75 11h4.278a.306.306 0 0 0 .305-.306v-.61a.306.306 0 0 0-.305-.306H13.75a.306.306 0 0 0-.306.305v.611c0 .168.138.306.306.306zm0-2.444h4.278a.306.306 0 0 0 .305-.306v-.611a.306.306 0 0 0-.305-.306H13.75a.306.306 0 0 0-.306.306v.611c0 .168.138.306.306.306zm0 4.888h4.278a.306.306 0 0 0 .305-.305v-.611a.306.306 0 0 0-.305-.306H13.75a.306.306 0 0 0-.306.306v.61c0 .169.138.306.306.306zm-6.417-1.222a3.055 3.055 0 1 0 0-6.11 3.055 3.055 0 1 0 0 6.11zm0-4.889a1.834 1.834 0 1 1 0 3.668 1.834 1.834 0 0 1 0-3.668zM19.556 0H2.444A2.447 2.447 0 0 0 0 2.444v12.223a2.447 2.447 0 0 0 2.444 2.444h17.112A2.447 2.447 0 0 0 22 14.667V2.444A2.447 2.447 0 0 0 19.556 0zm-9.167 15.889H4.278v-.577c0-.267.08-.527.229-.748.214-.317.603-.505 1.043-.505.473 0 .794.268 1.787.268.99 0 1.31-.268 1.788-.268.439 0 .828.191 1.042.505.15.221.23.48.23.748v.577h-.008zm10.389-1.222c0 .672-.55 1.222-1.222 1.222H11.61v-.577c0-.53-.16-1.023-.435-1.432-.462-.684-1.25-1.047-2.055-1.047-.745 0-.932.268-1.788.268-.855 0-1.042-.268-1.787-.268-.81 0-1.597.36-2.055 1.047a2.556 2.556 0 0 0-.435 1.432v.577h-.612c-.672 0-1.222-.55-1.222-1.222V4.889h19.556v9.778zm0-11H1.222V2.444c0-.672.55-1.222 1.222-1.222h17.112c.672 0 1.222.55 1.222 1.222v1.223z"/>
</svg>
